<svg xmlns="http://www.w3.org/2000/svg" viewBox="0 0 500 550">
  <defs>
    <linearGradient id="goldGradient" x1="0%" y1="0%" x2="100%" y2="100%">
      <stop offset="0%" stop-color="#e8c547"/>
      <stop offset="50%" stop-color="#d4af37"/>
      <stop offset="100%" stop-color="#b8962e"/>
    </linearGradient>
  </defs>
  <g fill="url(#goldGradient)">
    <!-- Griffin Rampant - Heraldic Style -->
    <!-- Main body silhouette -->
    <path d="
      M310,50
      Q330,45 345,55 Q360,65 365,80 Q370,95 360,105
      L380,95 Q400,85 410,100 Q415,115 400,120
      Q385,125 370,115
      L355,120 Q345,130 340,145
      Q335,155 340,165 Q350,175 365,180
      L385,175 Q400,170 410,185 Q415,200 400,210
      Q420,215 435,230 Q445,250 430,265
      Q415,255 400,260
      L380,275 Q365,290 355,310
      Q345,330 350,350 Q360,370 375,385
      L395,380 Q415,375 425,395 Q430,415 410,425
      Q425,440 430,460 Q430,480 410,490
      L390,485 Q375,495 365,510 Q355,525 340,530
      Q325,520 330,500 Q320,510 305,515
      Q290,505 300,485
      Q280,490 265,480 Q260,465 275,455
      Q265,445 270,425 Q280,405 295,400
      Q285,385 280,360 Q275,335 265,315
      Q255,295 240,280 Q225,265 205,260
      Q185,255 165,265
      Q145,275 130,295 Q115,315 105,340
      Q95,365 90,395 Q85,425 75,450
      L55,485 Q45,500 30,495
      Q35,475 45,455 Q40,465 25,470
      Q15,455 30,440 Q25,445 10,445
      Q10,425 30,420
      Q20,405 35,390 Q50,380 70,385
      Q80,365 95,350 Q85,340 95,320
      Q110,330 125,325 Q115,305 130,290
      Q145,300 160,295 Q155,275 175,265
      Q195,255 215,260
      Q235,265 250,280 Q265,295 275,315
      Q285,335 290,360 Q295,385 305,400
      Q295,350 290,300 Q285,250 275,210
      Q270,180 280,160 Q290,145 305,140
      Q295,125 300,105 Q310,85 325,80
      Q315,70 310,50 Z

      M280,175 Q270,185 275,200 Q280,215 290,210 Q300,205 295,190 Q290,175 280,175 Z
    "/>

    <!-- Wing with feather details -->
    <path d="
      M240,150 Q200,130 160,140 Q120,150 90,180
      Q60,210 45,250 Q30,290 25,335
      L50,320 Q45,350 35,385 L65,365
      Q60,395 50,430 L85,400
      Q85,435 80,465 L115,430
      Q120,460 120,490 L150,450
      Q160,475 165,500 L185,455
      Q200,340 210,280 Q220,220 240,150 Z
    "/>

    <!-- Wing feather lines -->
    <path d="M160,155 Q175,185 170,220" stroke="url(#goldGradient)" stroke-width="4" fill="none" opacity="0.4"/>
    <path d="M125,175 Q145,210 145,250" stroke="url(#goldGradient)" stroke-width="4" fill="none" opacity="0.4"/>
    <path d="M95,205 Q120,240 125,285" stroke="url(#goldGradient)" stroke-width="4" fill="none" opacity="0.4"/>
    <path d="M70,245 Q100,280 105,330" stroke="url(#goldGradient)" stroke-width="4" fill="none" opacity="0.4"/>
    <path d="M55,295 Q85,325 95,375" stroke="url(#goldGradient)" stroke-width="4" fill="none" opacity="0.4"/>

    <!-- Chest fur detail -->
    <path d="M275,200 Q265,220 270,245 Q260,235 255,260 Q245,245 240,275 Q230,260 225,290"
          stroke="url(#goldGradient)" stroke-width="3" fill="none" opacity="0.3"/>

    <!-- Tail curl -->
    <path d="
      M75,450 Q55,470 40,500 Q25,530 45,545
      Q65,540 80,520 Q95,500 90,475 Q85,460 75,450 Z
    "/>

    <!-- Eye -->
    <circle cx="320" cy="95" r="6" fill="#1a0303"/>

    <!-- Ear tufts -->
    <path d="M305,60 Q295,40 305,25 Q320,35 315,55 Z"/>
    <path d="M320,55 Q315,35 330,20 Q345,35 335,55 Z"/>
  </g>
</svg>