<svg xmlns="http://www.w3.org/2000/svg" viewBox="0 0 500 550">
  <defs>
    <linearGradient id="goldGradient" x1="0%" y1="0%" x2="100%" y2="100%">
      <stop offset="0%" stop-color="#e8c547"/>
      <stop offset="50%" stop-color="#d4af37"/>
      <stop offset="100%" stop-color="#b8962e"/>
    </linearGradient>
  </defs>
  <g fill="url(#goldGradient)">
    <!-- Head with beak -->
    <path d="M320,75 Q335,60 355,58 Q375,56 390,68 Q400,78 395,92
             Q390,100 375,102 L355,98 Q365,108 360,120 Q350,125 335,118
             Q325,112 320,100 Q315,88 320,75 Z"/>

    <!-- Ear tuft -->
    <path d="M315,68 Q308,48 318,35 Q332,48 325,65 Z"/>

    <!-- Neck -->
    <path d="M320,100 Q310,115 305,135 Q300,155 305,175 L325,175
             Q330,155 328,135 Q326,115 320,100 Z"/>

    <!-- Chest with fur texture -->
    <path d="M305,175 Q295,190 290,210 Q285,195 280,220 Q275,205 270,235
             Q265,220 260,250 Q255,235 250,270 Q260,290 275,305
             L305,305 Q310,285 308,265 Q306,245 310,225 Q314,205 318,185
             Q322,175 325,175 L305,175 Z"/>

    <!-- Body and hip -->
    <path d="M275,305 Q265,325 260,350 Q255,375 260,400 Q265,425 280,445
             Q295,465 315,475 L335,470 Q325,450 325,425 Q325,400 335,380
             Q340,365 335,345 Q330,325 320,310 L305,305 Z"/>

    <!-- Raised front arm with claw -->
    <path d="M325,175 Q345,168 365,178 Q385,188 395,210
             Q398,225 388,235 Q378,230 375,218
             Q385,240 378,255 Q368,250 365,235
             Q372,260 362,272 Q350,265 355,248
             Q350,268 338,268 Q338,252 350,240
             Q340,248 330,240 Q342,230 355,222
             Q345,218 338,205 Q332,190 335,178 Q330,175 325,175 Z"/>

    <!-- Lower front leg with claws -->
    <path d="M320,310 Q335,330 345,360 Q355,390 350,420
             Q340,425 342,410 Q350,435 340,450
             Q328,445 332,425 Q325,445 312,450
             Q310,435 322,418 Q315,408 318,388
             Q322,368 318,345 Q314,325 320,310 Z"/>

    <!-- Hind leg standing -->
    <path d="M260,400 Q250,420 248,445 Q246,470 260,488
             Q272,485 268,470 Q278,490 292,488
             Q288,475 280,460 L290,455 Q295,435 290,415
             Q285,395 270,385 Q260,390 260,400 Z"/>

    <!-- Wing feather 1 (top) -->
    <path d="M290,140 Q265,130 240,132 Q220,134 215,145
             Q225,190 220,240 Q235,200 255,165 Q270,145 290,140 Z"/>

    <!-- Wing feather 2 -->
    <path d="M212,150 Q190,148 172,162 Q175,215 172,275
             Q195,220 210,175 Q215,160 212,150 Z"/>

    <!-- Wing feather 3 -->
    <path d="M168,168 Q148,178 138,195 Q165,260 162,330
             Q175,270 180,210 Q182,185 168,168 Z"/>

    <!-- Wing feather 4 -->
    <path d="M134,200 Q118,215 108,240 Q142,315 145,390
             Q155,320 155,260 Q152,225 134,200 Z"/>

    <!-- Wing feather 5 -->
    <path d="M105,248 Q92,268 88,295 Q125,375 132,455
             Q140,380 135,315 Q128,275 105,248 Z"/>

    <!-- Wing feather 6 (bottom) -->
    <path d="M85,305 Q75,340 78,380 Q85,420 100,470
             L145,445 Q120,400 110,355 Q100,325 85,305 Z"/>

    <!-- Wing connection to body -->
    <path d="M280,175 Q265,165 250,165 Q235,165 225,175
             Q240,195 255,220 Q270,200 280,175 Z"/>

    <!-- Tail -->
    <path d="M260,445 Q230,455 200,475 Q170,495 145,520
             Q130,510 140,495 Q120,505 105,500
             Q115,485 135,480 Q115,475 105,480
             Q115,460 140,462 Q120,455 115,460
             Q130,440 160,445 Q190,440 220,438
             Q245,436 260,445 Z"/>
  </g>
</svg>