<svg xmlns="http://www.w3.org/2000/svg" viewBox="0 0 480 520">
  <defs>
    <linearGradient id="goldGradient" x1="0%" y1="0%" x2="100%" y2="100%">
      <stop offset="0%" stop-color="#e8c547"/>
      <stop offset="50%" stop-color="#d4af37"/>
      <stop offset="100%" stop-color="#b8962e"/>
    </linearGradient>
  </defs>
  <g fill="url(#goldGradient)">
    <!-- Head with beak -->
    <path d="M300,85 Q315,70 335,65 Q355,60 370,70 Q385,80 380,95 Q375,105 360,108
             L340,105 Q350,115 345,125 Q335,130 320,125
             Q310,120 305,110 Q300,100 300,85 Z"/>

    <!-- Ear tufts -->
    <path d="M295,75 Q285,55 290,40 Q305,50 300,70 Z"/>
    <path d="M310,68 Q305,45 315,30 Q330,45 320,65 Z"/>

    <!-- Neck and chest with fur details -->
    <path d="M300,110 Q290,125 285,145 Q280,165 285,185
             Q275,175 270,195 Q265,180 260,205
             Q255,190 250,220 Q245,205 240,235
             Q250,260 260,280 Q270,300 275,320
             L295,320 Q300,300 295,280 Q290,260 295,240
             Q300,220 305,200 Q310,180 315,160
             Q320,140 315,120 Q310,110 300,110 Z"/>

    <!-- Body -->
    <path d="M260,280 Q245,300 235,330 Q225,360 230,390
             Q235,420 250,445 Q265,470 285,480
             L305,475 Q295,455 295,430 Q295,405 305,385
             Q315,365 310,340 Q305,315 295,295 L295,320
             Q285,340 280,320 Q275,300 260,280 Z"/>

    <!-- Raised front arm/claw -->
    <path d="M315,160 Q335,155 355,165 Q375,175 385,195
             Q390,210 380,220 Q370,215 365,205
             Q375,225 370,240 Q358,235 355,220
             Q360,245 350,255 Q338,248 340,230
             Q335,250 320,250 Q320,235 330,220
             Q320,230 310,220 Q320,210 330,200
             Q320,195 315,180 Q310,165 315,160 Z"/>

    <!-- Front lower leg with claws -->
    <path d="M295,320 Q310,340 320,370 Q330,400 325,430
             Q315,435 315,420 Q320,445 310,460
             Q298,455 302,435 Q295,455 282,458
             Q280,445 292,430 Q285,420 290,400
             Q295,380 290,355 Q285,335 295,320 Z"/>

    <!-- Hind leg -->
    <path d="M235,390 Q220,410 215,440 Q210,470 225,490
             Q235,485 230,470 Q240,495 255,495
             Q252,480 245,465 Q260,490 275,488
             Q268,472 258,455 Q270,445 275,420
             Q280,400 265,385 Q250,375 235,390 Z"/>

    <!-- Wing - main shape with feather sections -->
    <path d="M250,140 Q210,125 170,135 Q130,145 100,175
             Q70,205 55,250 Q45,290 50,330
             Q60,320 75,325 Q55,355 45,390
             Q60,380 80,385 Q60,415 50,450
             Q70,435 95,440 Q80,470 75,500
             Q100,480 125,480 Q115,505 115,525
             Q145,500 170,495 Q175,450 185,400
             Q195,350 210,300 Q225,250 245,200
             Q255,170 250,140 Z"/>

    <!-- Wing feather detail lines -->
    <path d="M170,150 Q185,190 175,235" stroke="#b8962e" stroke-width="5" fill="none" opacity="0.5"/>
    <path d="M130,170 Q150,215 145,265" stroke="#b8962e" stroke-width="5" fill="none" opacity="0.5"/>
    <path d="M100,200 Q125,250 120,310" stroke="#b8962e" stroke-width="5" fill="none" opacity="0.5"/>
    <path d="M75,240 Q100,295 100,360" stroke="#b8962e" stroke-width="5" fill="none" opacity="0.5"/>
    <path d="M60,290 Q85,350 90,415" stroke="#b8962e" stroke-width="5" fill="none" opacity="0.5"/>

    <!-- Tail -->
    <path d="M225,445 Q190,450 160,470 Q130,490 110,520
             Q95,510 100,490 Q80,505 60,505
             Q70,485 90,475 Q70,475 55,480
             Q65,460 90,455 Q75,450 65,455
             Q80,435 105,440 Q130,430 160,430
             Q190,430 225,445 Z"/>

    <!-- Eye -->
    <circle cx="318" cy="95" r="5" fill="#1a0303"/>
  </g>
</svg>